# xmcd CD database file
#
# Track frame offsets:
#	150
#	18698
#	34773
#	53453
#
# Disc length: 926 seconds
#
# Revision: 0
# Processed by: cddbd v1.5PL3 Copyright (c) Steve Scherf et al.
# Submitted via: CDex 1.51
#
DISCID=28039c04
DTITLE=関東裸会三羽烏 - 関東裸会の唄
DYEAR=2001
DGENRE=JPop
TTITLE0=関東裸会の唄
TTITLE1=関東裸会音頭
TTITLE2=関東裸会の唄(カラオケ)
TTITLE3=関東裸会音頭(カラオケ)
EXTD=YEAR: 2001.03.14
EXTT0=
EXTT1=
EXTT2=
EXTT3=
PLAYORDER=
